<?xml version="1.0" standalone="no"?>
<!DOCTYPE svg PUBLIC "-//W3C//DTD SVG 20010904//EN"
 "http://www.w3.org/TR/2001/REC-SVG-20010904/DTD/svg10.dtd">
<svg version="1.0" xmlns="http://www.w3.org/2000/svg"
 width="736.000000pt" height="985.000000pt" viewBox="0 0 736.000000 985.000000"
 preserveAspectRatio="xMidYMid meet">

<g transform="translate(0.000000,985.000000) scale(0.100000,-0.100000)"
fill="#000000" stroke="none">
<path d="M3967 9775 c-4 -28 -9 -119 -13 -202 -3 -84 -8 -153 -10 -153 -1 0
-88 64 -191 141 -211 159 -332 243 -339 236 -3 -3 2 -42 10 -87 21 -110 46
-312 46 -373 0 -41 -3 -48 -17 -43 -10 3 -81 23 -159 45 -148 43 -308 96 -386
130 -34 14 -48 17 -48 8 0 -17 88 -224 138 -324 24 -49 36 -83 29 -83 -7 1
-73 32 -147 70 -74 38 -135 68 -136 67 -1 -1 22 -42 53 -90 30 -49 52 -91 49
-94 -3 -3 -100 27 -216 67 -116 40 -213 71 -215 68 -2 -2 58 -107 135 -233 76
-127 136 -233 132 -236 -4 -4 -115 -19 -247 -34 -132 -15 -247 -29 -255 -32
-10 -3 0 -13 28 -31 41 -26 55 -52 29 -52 -7 0 -56 -55 -107 -121 -66 -86
-104 -126 -128 -136 -19 -8 -32 -17 -29 -19 3 -3 21 2 41 11 24 12 63 53 121
129 102 135 127 151 201 124 29 -10 37 -8 81 20 53 34 123 62 156 62 15 0 5
-11 -34 -38 -54 -37 -91 -93 -104 -154 -5 -24 -14 -30 -75 -49 -40 -12 -81
-18 -95 -15 -26 7 -32 -3 -15 -20 13 -13 -12 -76 -45 -111 -21 -24 -28 -25
-88 -21 -43 4 -78 14 -108 31 -37 22 -50 24 -86 18 -52 -10 -82 -30 -142 -92
-26 -27 -55 -49 -65 -49 -31 0 -56 -20 -102 -83 -25 -34 -71 -82 -102 -107
-84 -68 -131 -130 -167 -221 l-33 -82 -130 -67 c-150 -79 -201 -109 -259 -157
-37 -29 -43 -40 -43 -72 0 -21 7 -60 15 -87 10 -33 15 -93 15 -181 0 -72 5
-166 11 -209 10 -71 9 -78 -8 -87 -10 -6 -38 -30 -62 -55 -43 -45 -43 -45 -38
-101 l6 -56 -69 -28 c-81 -34 -93 -52 -117 -179 -19 -105 -14 -272 12 -343 16
-46 17 -66 6 -265 -6 -118 -11 -262 -11 -320 0 -103 -1 -107 -48 -220 -74
-175 -104 -268 -109 -340 -4 -63 -3 -68 56 -184 55 -109 61 -126 61 -182 0
-82 17 -206 37 -269 29 -92 62 -143 109 -165 40 -20 58 -21 331 -20 214 2 301
-2 338 -12 39 -10 168 -13 582 -13 293 0 533 0 533 0 0 0 -16 -83 -35 -184
-39 -206 -90 -508 -100 -591 -19 -169 -41 -528 -33 -549 23 -62 133 -161 231
-207 30 -14 37 -23 33 -39 -2 -11 -14 -52 -24 -91 -11 -39 -27 -127 -36 -195
-14 -119 -28 -167 -112 -389 -17 -45 -17 -110 0 -133 11 -14 11 -31 -5 -105
-10 -48 -23 -128 -29 -178 -6 -49 -13 -103 -16 -120 -3 -24 -16 -38 -54 -63
-69 -45 -161 -149 -205 -232 -99 -189 -198 -558 -230 -866 l-7 -63 1611 0
1611 0 -17 42 -16 41 39 31 c72 57 99 84 92 91 -4 4 -29 -11 -55 -35 -53 -46
-76 -48 -139 -10 -36 23 -94 103 -94 132 0 10 37 60 83 111 113 125 114 127
24 121 -107 -8 -116 -11 -122 -42 -13 -62 -40 -131 -78 -199 -22 -40 -43 -73
-47 -73 -23 0 -104 129 -102 161 4 50 91 341 108 360 9 10 33 24 52 30 71 24
182 82 182 95 0 12 -4 12 -24 -1 -23 -15 -27 -15 -66 5 -22 11 -58 37 -80 56
-37 34 -39 35 -59 17 -12 -9 -21 -27 -21 -39 0 -20 -18 -48 -67 -104 -12 -14
-30 -35 -41 -48 -29 -34 -37 -26 -13 14 22 37 26 54 14 54 -5 0 -21 -25 -37
-56 -16 -31 -40 -61 -52 -66 -29 -14 -93 -1 -101 19 -4 9 8 57 26 107 19 50
51 143 73 206 47 137 70 181 109 204 28 17 31 16 89 -10 40 -18 72 -41 96 -70
41 -51 68 -66 144 -84 103 -24 134 -62 188 -230 25 -81 53 -187 166 -636 l13
-51 -53 -64 c-30 -35 -54 -67 -54 -71 0 -5 64 -8 142 -8 l142 0 38 42 38 43
39 -42 39 -43 152 0 152 0 85 66 c90 71 129 119 139 174 5 27 34 63 123 155
64 66 137 148 161 182 25 35 91 122 146 195 120 158 199 274 221 325 10 25 14
58 11 101 l-4 63 56 57 c115 115 250 295 343 458 l47 81 0 464 0 464 -60 65
c-33 36 -60 74 -60 86 0 31 -41 162 -100 319 -59 157 -136 314 -239 487 l-69
117 -4 173 c-4 200 -7 207 -93 286 -30 28 -55 57 -55 66 0 54 -147 557 -202
692 -76 184 -199 326 -353 406 -150 77 -308 116 -540 133 -49 3 -103 10 -120
15 -16 5 -41 12 -55 14 -36 7 -57 56 -70 164 -14 121 -64 373 -80 401 -6 13
-31 31 -54 42 l-43 19 -6 127 c-3 70 -4 129 -2 132 3 2 50 -15 106 -38 56 -23
103 -40 105 -38 3 2 -14 43 -37 91 -41 84 -41 87 -23 107 10 11 38 29 63 40
58 25 126 91 157 151 33 65 57 253 58 453 0 227 -20 324 -86 418 -25 35 -18
43 21 29 17 -6 31 -9 31 -7 0 2 -47 71 -105 154 -58 82 -105 153 -105 158 0 4
31 7 68 5 38 -2 84 -2 102 0 33 3 32 3 -79 97 -61 51 -111 94 -111 96 0 4 214
136 283 175 32 18 55 36 50 41 -8 8 -312 138 -420 180 l-62 24 20 21 c10 11
78 68 149 125 71 57 126 107 122 111 -6 5 -409 79 -524 95 -21 3 -38 10 -38
15 0 5 45 73 99 151 55 78 96 143 92 145 -5 1 -121 -33 -259 -78 -137 -44
-253 -80 -256 -80 -4 0 -4 81 0 180 4 106 3 180 -2 180 -5 -1 -50 -58 -99
-127 -50 -70 -95 -128 -100 -129 -6 -2 -41 43 -79 99 -82 122 -266 380 -300
422 l-24 29 -5 -49z m261 -660 c-21 -21 -730 -156 -744 -142 -7 6 200 62 321
88 192 40 441 72 423 54z m78 -99 c26 -20 16 -25 -30 -17 -58 9 -216 -4 -336
-28 -182 -37 -436 -113 -751 -225 -57 -21 -80 -51 -127 -171 l-38 -94 -104
-55 c-58 -30 -117 -67 -132 -82 -47 -46 -53 -82 -53 -296 1 -169 -1 -198 -15
-204 -140 -57 -193 -59 -206 -8 -8 33 3 339 17 478 5 55 16 114 24 132 20 48
141 121 379 226 373 166 622 250 896 303 273 52 440 67 476 41z m-1211 -184
c-19 -17 -115 -82 -120 -82 -3 0 -22 -11 -43 -23 -20 -13 -55 -30 -77 -37 -22
-7 -77 -35 -123 -61 -45 -27 -85 -49 -87 -49 -10 0 -111 -69 -126 -86 -32 -37
-37 -60 -48 -219 -27 -368 -30 -381 -25 -112 4 279 9 304 62 360 38 40 114 84
362 209 194 98 252 124 225 100z m-89 -398 c-3 -9 -6 -20 -6 -25 0 -5 -30 -29
-67 -53 -38 -23 -90 -63 -118 -88 l-50 -46 2 -184 c1 -109 -2 -175 -7 -163 -5
11 -9 95 -9 186 -1 179 10 238 52 277 22 21 185 112 201 112 4 0 5 -7 2 -16z
m-56 -186 c-21 -62 -50 -152 -64 -200 -24 -81 -29 -88 -52 -88 -17 0 -28 -7
-31 -20 -13 -51 -21 -8 -22 126 l-2 146 41 39 c46 44 152 119 161 113 3 -2
-11 -54 -31 -116z m-519 -63 c0 -55 -4 -161 -7 -235 l-7 -136 -39 -28 c-34
-24 -39 -26 -34 -10 43 141 57 284 32 332 -9 17 -25 36 -36 42 -19 10 -18 12
15 56 19 25 35 52 35 59 0 14 18 25 34 21 5 -1 8 -47 7 -101z m-433 29 c38
-18 83 -28 146 -35 94 -9 197 -36 203 -54 2 -6 -6 -11 -17 -12 -29 -2 -75 -38
-100 -78 -12 -19 -23 -35 -25 -35 -1 0 -22 11 -46 24 -52 28 -120 43 -244 51
-51 4 -104 13 -122 22 l-31 17 25 32 c30 40 109 94 136 94 11 0 45 -12 75 -26z
m-218 -132 c24 -13 68 -21 135 -26 120 -7 208 -27 243 -53 39 -29 37 -38 -12
-57 -25 -10 -62 -36 -85 -61 l-41 -44 -35 23 c-55 37 -347 97 -361 75 -6 -10
13 -14 126 -29 117 -15 212 -45 239 -74 l23 -24 -34 -7 c-37 -8 -99 -44 -141
-83 -27 -26 -27 -26 -47 -6 -18 18 -26 19 -91 10 -100 -14 -246 11 -298 50
-13 10 91 120 148 156 15 10 45 43 66 73 66 96 99 112 165 77z m1060 -167 c0
-26 -14 -33 -25 -15 -9 14 1 40 15 40 5 0 10 -11 10 -25z m-43 -37 c-3 -7 -5
-2 -5 12 0 14 2 19 5 13 2 -7 2 -19 0 -25z m1935 -126 c4 -4 26 -98 49 -207
37 -181 41 -221 49 -425 10 -236 23 -320 61 -384 l22 -37 -64 -132 c-35 -73
-78 -154 -96 -182 -81 -125 -447 -458 -554 -504 -35 -15 -80 -20 -216 -25
l-172 -7 -106 55 c-150 78 -239 139 -325 226 -133 133 -204 242 -296 449 -14
31 -36 108 -49 171 -47 226 -94 435 -101 454 -12 31 12 10 25 -22 12 -28 48
-58 58 -48 3 3 -4 23 -15 46 -11 22 -14 36 -8 30 9 -7 21 -1 41 20 33 35 45
31 45 -15 0 -38 46 -99 83 -111 20 -6 18 -9 -18 -25 -47 -21 -77 -23 -92 -8
-7 7 -10 3 -10 -16 0 -15 6 -29 13 -32 7 -3 63 18 123 46 60 28 114 51 120 51
5 0 13 5 17 12 5 8 2 9 -10 5 -15 -6 -17 -4 -11 10 4 10 10 37 12 61 6 47 6
46 35 31 18 -10 20 -9 15 6 -4 9 -7 23 -7 30 0 7 -28 30 -62 51 -54 33 -71 38
-140 42 l-79 5 -70 -48 c-38 -26 -71 -46 -73 -44 -7 7 13 49 23 49 6 0 30 13
54 29 24 17 73 40 110 52 59 19 72 20 114 10 51 -13 93 -41 142 -94 38 -39 53
-29 18 13 -15 17 -24 37 -21 45 4 10 -14 27 -55 52 -33 21 -61 41 -61 44 0 17
451 189 494 189 5 0 -11 -21 -38 -47 -49 -49 -80 -96 -69 -106 3 -3 51 25 107
62 127 85 285 176 293 168 3 -4 -3 -10 -13 -13 -35 -13 -142 -94 -166 -127
-28 -37 -58 -91 -58 -106 0 -13 59 -81 70 -81 4 0 10 21 14 48 4 26 26 85 49
132 40 82 44 86 102 114 53 26 73 30 175 34 63 2 118 7 122 11 9 8 391 2 400
-7z m-2338 -38 c38 -10 69 -26 82 -41 l21 -25 -42 -40 c-24 -21 -58 -68 -76
-103 -29 -56 -38 -64 -69 -70 -19 -4 -52 -15 -74 -26 -22 -10 -40 -19 -41 -19
-8 0 -56 182 -52 193 3 9 33 30 66 47 33 16 73 46 88 65 15 19 30 35 32 35 3
0 32 -7 65 -16z m358 -343 l-5 -70 57 -36 c31 -19 56 -39 56 -43 0 -4 -20 -27
-44 -51 -59 -58 -69 -85 -64 -173 3 -60 22 -125 102 -361 91 -263 102 -291
140 -331 38 -40 48 -45 141 -67 l100 -23 90 -86 c89 -85 188 -161 253 -195 28
-13 33 -21 27 -38 -3 -12 -11 -53 -17 -90 -9 -56 -14 -68 -27 -64 -9 3 -48 17
-87 31 -146 53 -304 65 -434 34 -63 -15 -183 -71 -240 -112 -44 -31 -50 -33
-62 -19 -17 21 -71 43 -105 43 -47 0 -131 -47 -196 -109 -50 -47 -66 -57 -82
-50 -33 13 -120 10 -140 -5 -17 -12 -26 -8 -89 35 -39 27 -87 52 -107 55 -32
5 -40 1 -92 -46 -31 -29 -57 -48 -57 -44 0 5 6 43 14 84 8 41 26 158 41 259
21 147 31 191 50 220 15 23 28 65 36 116 6 44 20 112 30 151 24 90 24 97 -5
132 -30 34 -26 62 16 110 40 46 66 102 87 185 14 56 30 88 73 145 30 40 60 90
66 111 11 35 14 37 73 50 99 20 166 49 189 81 11 16 33 66 48 112 24 75 30 83
54 86 15 2 44 12 65 22 21 11 41 19 44 20 4 0 4 -31 1 -69z m338 -55 c0 -3 -4
-8 -10 -11 -5 -3 -10 -1 -10 4 0 6 5 11 10 11 6 0 10 -2 10 -4z m187 -52 c3
-8 -1 -22 -9 -30 -12 -12 -17 -12 -33 0 -16 12 -17 16 -6 30 17 20 40 21 48 0z
m1663 -973 c0 -43 3 -99 6 -124 l6 -45 -103 -32 c-57 -17 -112 -34 -122 -37
-12 -3 9 35 61 114 44 65 89 137 101 161 35 68 51 56 51 -37z m-360 -956 c14
-19 14 -19 -2 -6 -10 7 -18 18 -18 24 0 6 1 8 3 6 1 -2 9 -13 17 -24z m6 -63
c-21 -40 -42 -55 -61 -45 -14 8 -14 11 0 28 16 20 16 19 10 -2 -4 -13 -2 -23
3 -23 17 0 32 27 26 46 -5 16 -4 16 5 4 9 -13 11 -13 11 3 0 9 5 17 10 17 6 0
4 -12 -4 -28z m-66 14 c0 -2 -8 -10 -17 -17 -16 -13 -17 -12 -4 4 13 16 21 21
21 13z m1303 -2176 c14 -47 39 -148 57 -225 18 -77 38 -146 43 -153 17 -21
167 -117 257 -164 62 -33 86 -50 88 -66 4 -27 -8 -28 -81 -2 -31 11 -66 20
-77 20 -66 0 -86 -56 -71 -195 6 -52 11 -98 11 -102 0 -5 -16 -17 -35 -27 -66
-36 -139 -184 -189 -382 -14 -53 -26 -98 -28 -100 -2 -1 -21 1 -43 6 -100 23
-176 -42 -235 -200 -16 -43 -31 -65 -50 -75 -38 -20 -87 -77 -150 -176 l-55
-87 -80 5 c-60 4 -89 2 -117 -10 l-38 -16 0 61 c0 52 4 65 30 98 46 59 73 126
67 171 -3 20 -19 66 -37 102 l-31 64 67 179 c37 98 71 185 77 192 5 7 33 12
66 12 121 1 363 28 378 42 11 11 16 74 23 284 9 280 27 426 85 707 14 67 25
126 25 131 0 28 22 -19 43 -94z m-3131 -1619 c31 -10 81 -24 113 -31 51 -11
56 -14 50 -33 -13 -46 -33 -186 -40 -281 l-8 -98 -64 6 c-60 6 -219 50 -235
65 -7 6 18 138 48 246 21 78 53 145 69 145 6 0 37 -9 67 -19z m1308 -187 c135
-9 328 -21 430 -28 l185 -11 3 -54 c3 -45 -6 -83 -50 -209 l-53 -155 -100 7
c-55 3 -179 11 -275 16 -175 11 -551 47 -558 55 -2 2 5 60 17 128 12 69 21
159 21 202 l0 76 68 -6 c37 -3 177 -13 312 -21z m1290 -242 c0 -9 -7 -13 -19
-9 -19 5 -19 4 0 -40 28 -65 22 -66 -10 -3 -29 56 -27 70 11 67 10 -1 18 -8
18 -15z m50 -72 c10 0 21 6 23 13 3 6 6 -2 6 -20 1 -20 -5 -36 -16 -43 -17
-11 -17 -11 0 -6 10 3 21 6 23 6 2 0 4 9 4 20 0 21 19 28 21 8 0 -10 2 -10 6
0 10 24 23 11 51 -50 40 -87 51 -118 54 -153 1 -16 5 -34 9 -40 8 -11 59 -198
63 -230 1 -11 5 -27 9 -35 3 -8 11 -35 17 -59 10 -38 9 -46 -4 -53 -9 -5 -16
-19 -16 -31 -1 -20 -2 -20 -16 6 -29 54 -53 22 -37 -49 6 -24 7 -44 3 -44 -11
0 -29 124 -19 128 5 2 6 8 3 14 -3 5 -13 33 -21 61 -39 139 -52 200 -46 211 3
6 3 8 -2 4 -4 -4 -14 4 -22 18 -16 31 -16 37 -3 29 6 -3 7 1 4 10 -5 11 -10
13 -19 5 -12 -10 -34 26 -70 114 -19 49 -19 52 3 34 9 -8 24 -18 32 -22 14 -7
6 1 -50 46 -16 12 -18 18 -8 14 14 -4 17 1 16 29 -1 20 -5 32 -11 28 -6 -4 -7
-1 -3 6 5 7 15 10 23 7 8 -4 11 -1 8 5 -4 6 -13 8 -21 5 -9 -3 -20 7 -29 27
-15 30 -15 31 1 10 9 -13 25 -23 34 -23z m70 5 c0 -5 -5 -3 -10 5 -5 8 -10 20
-10 25 0 6 5 3 10 -5 5 -8 10 -19 10 -25z m-846 -335 l40 0 -20 -21 c-20 -20
-23 -20 -60 -4 -39 16 -54 30 -54 53 0 9 8 7 26 -7 17 -14 41 -21 68 -21z
m1036 -398 c0 -9 6 -12 16 -8 14 5 15 4 4 -9 -10 -12 -16 -13 -26 -4 -10 8
-14 8 -14 0 0 -21 -15 -11 -16 12 -1 16 4 23 17 23 11 0 19 -7 19 -14z"/>
<path d="M2639 8489 c-31 -17 -61 -41 -67 -54 -6 -12 -13 -92 -17 -176 -3 -85
-8 -174 -11 -199 -4 -29 -2 -42 4 -35 10 10 172 468 172 485 0 17 -23 11 -81
-21z"/>
<path d="M2801 8212 c-15 -28 8 -57 38 -47 17 5 21 13 19 33 -4 34 -42 43 -57
14z m43 -23 c-8 -14 -34 -11 -34 4 0 8 3 17 7 20 9 9 34 -13 27 -24z"/>
<path d="M4191 7710 c-95 -15 -135 -36 -205 -111 -36 -38 -66 -76 -66 -85 0
-8 5 -12 10 -9 13 8 13 -8 -2 -40 -8 -18 -8 -31 -1 -48 6 -12 14 -30 16 -39 8
-23 96 -33 206 -23 47 4 104 8 126 9 99 4 112 7 134 27 21 20 22 23 7 38 -13
12 -19 13 -24 4 -10 -16 -75 -43 -104 -43 -21 0 -21 1 7 19 59 36 70 57 69
133 0 62 1 69 17 65 10 -3 20 0 23 7 5 12 9 -26 7 -61 -1 -11 3 -24 8 -28 7
-4 11 5 11 24 0 21 5 31 16 31 12 0 14 10 12 53 -3 51 -4 52 -43 65 -52 17
-156 23 -224 12z m137 -138 c3 -18 -1 -22 -22 -22 -19 0 -26 5 -26 18 0 39 43
43 48 4z m-268 10 c0 -4 -10 -13 -22 -21 -23 -14 -23 -14 -4 8 20 22 26 25 26
13z m24 -74 c5 -31 17 -52 47 -80 22 -21 48 -38 57 -38 14 -1 15 -2 2 -9 -8
-5 -53 -12 -99 -16 -77 -6 -85 -5 -107 16 -27 25 -32 70 -9 89 8 7 12 17 8 23
-3 5 -2 7 4 4 5 -3 25 9 43 28 18 19 36 32 40 30 4 -3 10 -24 14 -47z"/>
<path d="M3417 6988 c-56 -115 -76 -209 -57 -277 12 -46 66 -111 92 -111 24 0
60 59 56 91 -4 23 -2 26 9 17 7 -6 16 -8 19 -5 9 9 -57 63 -72 59 -23 -5 -25
17 -9 96 17 85 17 173 -1 179 -6 2 -22 -20 -37 -49z"/>
<path d="M3603 6785 c-7 -21 6 -33 17 -16 6 10 19 12 49 7 43 -7 58 7 19 18
-41 11 -78 6 -85 -9z"/>
<path d="M3696 6534 c-38 -9 -82 -22 -98 -30 -35 -18 -57 -59 -41 -75 8 -8 19
-2 40 20 24 27 42 35 123 51 106 22 322 27 424 10 58 -9 77 -7 63 7 -4 3 -48
12 -99 19 -123 18 -325 16 -412 -2z"/>
<path d="M3755 6400 c-103 -14 -139 -36 -96 -60 51 -27 245 9 290 55 14 13 8
15 -59 14 -41 -1 -102 -5 -135 -9z"/>
<path d="M5403 815 c0 -8 4 -12 9 -9 5 3 6 10 3 15 -9 13 -12 11 -12 -6z"/>
<path d="M5445 789 c-4 -6 -5 -12 -2 -15 2 -3 7 2 10 11 7 17 1 20 -8 4z"/>
<path d="M5421 754 c0 -11 3 -14 6 -6 3 7 2 16 -1 19 -3 4 -6 -2 -5 -13z"/>
<path d="M5471 614 c0 -11 3 -14 6 -6 3 7 2 16 -1 19 -3 4 -6 -2 -5 -13z"/>
<path d="M5532 575 c0 -16 2 -22 5 -12 2 9 2 23 0 30 -3 6 -5 -1 -5 -18z"/>
<path d="M6405 9668 c-27 -11 -88 -27 -135 -37 -72 -14 -85 -20 -85 -36 0 -17
7 -20 49 -20 35 0 51 -4 54 -15 14 -47 37 -80 68 -96 18 -10 34 -22 34 -25 0
-4 -20 -10 -45 -13 -25 -4 -46 -13 -46 -19 -6 -62 -5 -129 2 -164 5 -25 5 -52
0 -65 -11 -30 7 -74 43 -107 33 -31 33 -37 0 -45 -21 -6 -25 -11 -20 -30 4
-15 0 -28 -9 -36 -20 -17 -19 -76 4 -126 18 -39 18 -41 0 -63 -22 -26 -25 -90
-8 -140 17 -47 29 -37 22 19 -4 33 -2 55 7 65 22 26 29 16 23 -33 -9 -76 27
-99 102 -67 66 27 64 106 -4 156 -17 12 -31 30 -31 39 0 29 31 120 40 120 16
0 12 -32 -6 -52 -13 -14 -14 -21 -5 -32 7 -8 19 -12 26 -10 20 8 30 90 15 122
-7 15 -13 52 -14 82 -1 39 -10 70 -28 103 l-27 48 23 9 c30 11 56 47 56 78 0
15 -16 40 -40 65 -22 22 -39 42 -36 44 2 3 35 8 73 11 64 7 68 8 68 32 0 22
-4 25 -35 26 -31 0 -35 3 -32 23 6 37 -18 79 -56 103 l-36 22 32 13 c20 8 32
20 32 32 0 34 -22 39 -75 19z m36 -120 c45 -25 50 -44 15 -58 -47 -17 -146 30
-133 64 9 23 71 20 118 -6z m22 -240 c15 -23 -8 -48 -43 -48 -29 0 -30 6 -14
58 5 18 44 11 57 -10z m-105 -35 c-3 -49 -16 -71 -30 -50 -10 16 -10 41 2 71
16 42 30 30 28 -21z m57 -120 c16 -16 35 -55 35 -74 0 -16 -41 -10 -71 12 -31
21 -37 47 -17 67 16 16 34 15 53 -5z m31 -172 c-10 -11 -26 -52 -36 -91 -10
-40 -21 -75 -24 -78 -13 -12 -38 27 -43 67 -5 36 -3 41 14 41 10 0 24 -5 31
-12 19 -19 15 17 -4 47 -17 26 -16 28 31 38 44 10 49 8 31 -12z m15 -251 c23
-13 24 -24 3 -44 -17 -17 -64 -22 -64 -7 0 21 20 61 30 61 6 0 20 -5 31 -10z"/>
<path d="M6775 9661 c-66 -24 -95 -39 -95 -51 0 -20 40 -49 82 -60 24 -6 55
-17 70 -25 33 -19 38 -19 38 -1 0 17 -56 66 -76 66 -31 0 -11 17 41 35 40 13
55 23 53 34 -4 23 -54 24 -113 2z"/>
<path d="M6713 9520 c-27 -11 -39 -63 -28 -123 9 -50 8 -79 -1 -130 -3 -21 -1
-58 5 -82 8 -34 8 -49 -1 -64 -9 -15 -7 -27 16 -65 l27 -46 -20 -28 c-11 -16
-23 -40 -26 -54 -8 -33 18 -97 52 -125 l26 -21 -36 -16 c-62 -25 -45 -66 29
-70 60 -4 90 -21 104 -59 5 -16 14 -26 19 -23 12 8 -3 73 -23 95 -21 23 -20
28 5 34 27 7 24 64 -3 59 -24 -4 -23 7 5 36 16 17 22 35 21 65 -1 58 -19 86
-68 108 -87 38 -102 93 -24 87 40 -3 43 -5 58 -47 22 -63 44 -68 35 -7 l-7 46
39 0 c47 0 56 6 42 31 -7 14 -21 19 -48 19 -34 0 -39 3 -44 27 -3 15 -3 42 0
60 4 25 -1 41 -22 69 -22 29 -25 38 -14 45 8 5 17 9 21 9 18 0 38 35 38 67 0
29 -8 44 -40 75 -33 30 -48 38 -78 37 -20 0 -47 -4 -59 -9z m137 -65 c10 -13
10 -19 -5 -35 -20 -22 -65 -27 -65 -7 0 6 3 22 6 35 7 26 45 30 64 7z m-107
-52 c-1 -41 -5 -58 -15 -58 -8 0 -14 14 -16 34 -4 44 5 81 21 81 8 0 12 -18
10 -57z m77 -133 c20 -15 23 -21 13 -31 -16 -16 -17 -65 -2 -75 23 -14 -10
-26 -54 -20 -34 5 -47 13 -56 32 -16 36 -14 58 10 88 24 31 54 33 89 6z m29
-324 c8 -10 7 -21 -6 -47 -9 -19 -21 -37 -27 -41 -17 -12 -71 -9 -84 4 -18 18
-14 56 8 78 23 23 91 27 109 6z"/>
<path d="M6875 8555 c-123 -26 -154 -37 -145 -55 6 -11 -1 -27 -21 -54 -16
-22 -29 -45 -29 -51 0 -15 53 -65 68 -65 15 0 16 -16 2 -25 -16 -10 -11 -45
11 -77 12 -16 20 -31 18 -32 -9 -8 -86 -44 -108 -51 -23 -7 -23 -7 -16 56 4
35 9 66 11 68 2 2 10 -2 19 -9 9 -7 18 -10 22 -6 11 10 -32 61 -54 64 -17 3
-22 -6 -32 -54 -18 -94 -15 -129 16 -153 34 -28 32 -28 261 86 2 1 -1 11 -8
22 -8 16 -20 21 -54 21 -23 0 -46 3 -49 7 -11 11 14 33 38 33 36 0 55 10 55
30 0 11 5 22 10 25 20 12 9 44 -30 94 -22 28 -40 52 -40 55 0 2 31 9 69 16 76
13 102 30 81 55 -14 17 -14 17 -95 0z m-48 -127 c33 -31 29 -54 -12 -68 -36
-12 -75 -1 -75 22 0 12 49 68 59 68 2 0 15 -10 28 -22z"/>
<path d="M6338 8509 c-39 -22 -46 -134 -12 -186 12 -19 12 -23 -2 -31 -12 -7
-15 -17 -10 -36 6 -23 11 -26 51 -26 52 0 86 -14 104 -42 17 -28 8 -32 -27
-14 -38 20 -98 11 -117 -18 -18 -24 -20 -100 -4 -144 8 -24 7 -36 -4 -54 -19
-31 -5 -82 29 -105 l26 -16 -24 -13 c-19 -10 -23 -20 -23 -58 l0 -46 68 7 c56
5 67 3 67 -9 0 -12 -13 -15 -60 -14 -44 1 -64 -3 -77 -16 -16 -16 -16 -20 -1
-51 19 -39 66 -97 79 -97 24 0 19 33 -10 66 -17 19 -29 39 -26 45 4 5 26 9 51
9 33 0 46 -4 51 -17 3 -10 12 -33 20 -52 18 -45 35 -29 24 22 l-9 37 45 0 c40
0 44 2 41 23 -2 18 -10 23 -45 25 -43 3 -43 3 -43 43 0 41 -2 42 -55 40 -48
-3 -11 16 60 29 77 15 89 22 80 49 -5 17 -14 21 -46 21 -35 0 -39 3 -39 24 0
14 -12 38 -26 55 -14 17 -21 31 -14 31 25 0 60 49 60 84 0 19 -4 37 -9 40 -4
3 -11 28 -13 56 -3 28 -12 58 -22 68 -22 25 -20 42 4 42 21 0 27 24 11 48 -7
11 -19 11 -70 -3 -34 -10 -64 -15 -67 -12 -3 2 -8 31 -11 62 -7 65 7 85 57 85
34 0 69 -35 52 -52 -18 -18 -15 -58 3 -58 19 0 44 55 38 81 -3 10 -21 34 -40
54 -35 37 -78 46 -115 24z m35 -458 c2 -50 -1 -61 -13 -59 -19 4 -26 93 -9
114 17 21 21 13 22 -55z m105 42 c3 -17 -3 -26 -23 -33 -37 -14 -45 -13 -45 9
0 38 12 52 39 49 18 -2 27 -10 29 -25z m-18 -168 c6 -8 10 -22 8 -32 -6 -35
-118 -24 -118 12 0 31 88 47 110 20z"/>
<path d="M6865 8054 c-33 -7 -76 -17 -95 -22 -30 -7 -35 -12 -32 -33 2 -16 -6
-33 -23 -49 -32 -30 -32 -60 0 -90 l24 -23 -19 -25 c-22 -27 -27 -102 -10
-146 16 -43 27 -29 22 27 -3 40 0 56 12 66 18 15 18 14 16 -51 -1 -38 3 -49
20 -60 19 -12 18 -14 -22 -23 -29 -8 -47 -19 -55 -35 -7 -14 -8 -26 -3 -28 4
-2 6 -28 3 -57 -4 -39 -1 -68 12 -101 15 -40 15 -47 2 -57 -11 -9 -13 -18 -6
-34 7 -19 16 -23 54 -23 68 0 115 -29 115 -71 0 -6 -10 -3 -22 5 -54 38 -128
6 -149 -64 -11 -36 -10 -44 14 -89 l25 -49 -20 -19 c-17 -15 -19 -26 -15 -69
3 -28 11 -61 18 -73 12 -17 11 -25 -4 -50 -19 -33 -22 -93 -6 -140 17 -47 29
-37 22 19 -4 33 -2 55 7 65 20 25 29 17 23 -19 -8 -52 3 -83 34 -93 27 -9 27
-10 -17 -21 -65 -16 -85 -33 -72 -59 9 -16 24 -22 68 -25 47 -4 62 -10 81 -32
13 -15 23 -34 23 -42 0 -8 5 -14 10 -14 19 0 10 57 -15 94 l-25 37 26 9 c20 8
24 14 18 33 -4 12 -11 25 -16 28 -5 3 -2 9 6 12 48 19 34 105 -23 148 -18 13
-31 32 -31 44 0 30 30 115 41 115 15 0 10 -32 -8 -52 -14 -16 -15 -21 -2 -33
22 -22 39 -3 46 52 5 46 3 54 -20 77 l-26 26 20 34 c16 27 18 41 11 73 -5 22
-7 54 -4 71 3 20 -3 46 -17 72 -26 49 -25 47 -1 53 21 5 25 23 11 46 -8 13
-18 12 -70 -2 -33 -9 -62 -17 -65 -17 -9 0 -27 90 -21 109 10 33 47 53 77 42
13 -5 30 -16 37 -25 11 -13 10 -18 -2 -31 -15 -14 -12 -55 3 -55 17 0 40 32
40 57 0 30 -34 88 -55 97 -33 12 -11 23 68 32 72 8 82 11 82 29 0 17 -8 21
-54 25 -48 4 -52 7 -38 19 26 20 22 80 -7 116 l-24 30 25 21 c23 18 24 23 13
45 -7 13 -28 43 -46 65 -38 48 -41 45 58 59 62 9 87 27 69 49 -16 19 -36 19
-116 0z m-28 -126 c13 -12 23 -27 23 -34 0 -32 -87 -46 -110 -19 -11 13 -8 21
15 45 34 36 42 37 72 8z m33 -174 c16 -19 -1 -39 -42 -49 -30 -8 -33 -1 -22
43 7 26 45 30 64 6z m0 -589 c20 -24 -30 -95 -67 -95 -58 0 -80 41 -48 87 23
32 91 37 115 8z m-49 -229 c-11 -43 -22 -81 -26 -84 -12 -12 -37 27 -42 67 -5
37 -4 41 16 41 11 0 21 -4 21 -10 0 -5 5 -10 10 -10 6 0 10 9 10 19 0 11 -4
23 -10 26 -17 11 -11 23 13 27 12 2 23 3 25 2 1 0 -7 -36 -17 -78z m53 -172
c9 -8 16 -19 16 -24 0 -13 -34 -30 -59 -30 -24 0 -25 7 -11 44 11 30 31 33 54
10z"/>
<path d="M6530 7771 c0 -18 17 -38 25 -30 12 14 8 44 -7 47 -13 2 -18 -3 -18
-17z"/>
<path d="M6413 7470 c-54 -11 -83 -27 -83 -45 0 -12 11 -13 61 -8 80 8 78 -13
-4 -42 -65 -24 -90 -44 -82 -67 6 -15 12 -15 62 3 73 25 81 24 85 -6 4 -33 23
-28 23 5 1 19 6 26 25 28 14 1 32 -2 40 -8 13 -8 12 -11 -4 -23 -12 -9 -17
-20 -13 -31 8 -20 21 -20 41 0 37 37 8 96 -59 118 -43 15 -59 36 -26 36 26 0
36 17 21 35 -14 16 -24 17 -87 5z"/>
<path d="M6530 7468 c0 -22 17 -41 29 -34 19 12 13 46 -9 46 -11 0 -20 -6 -20
-12z"/>
<path d="M6373 7191 c-12 -6 -27 -20 -33 -32 -15 -28 -7 -95 15 -119 15 -17
15 -19 -4 -25 -37 -11 -40 -84 -6 -149 14 -26 14 -31 -1 -47 -23 -26 -28 -87
-10 -139 13 -39 13 -46 1 -60 -8 -9 -15 -25 -15 -36 0 -23 36 -84 50 -84 18 0
11 -18 -10 -23 -13 -3 -20 -14 -20 -29 0 -36 6 -38 58 -18 26 10 82 25 125 35
70 15 77 19 77 41 0 21 -5 24 -39 24 -34 0 -39 3 -44 29 -3 15 -17 42 -31 59
l-26 30 25 6 c35 9 58 48 50 85 -3 17 -24 46 -47 67 l-41 36 12 52 c14 64 26
85 41 70 7 -7 5 -18 -10 -36 -17 -23 -18 -27 -4 -38 21 -18 34 -2 41 50 4 29
1 53 -10 74 -8 17 -18 39 -21 49 -5 15 -13 17 -49 12 -34 -5 -48 -3 -67 13
-34 28 -19 40 69 55 66 11 71 13 59 30 -15 20 -101 32 -135 18z m73 -195 c-3
-12 -10 -45 -17 -74 -17 -80 -50 -82 -65 -4 -8 40 7 62 30 43 26 -21 37 -9 21
23 -19 36 -20 34 11 34 21 0 25 -4 20 -22z m47 -238 c15 -23 -8 -48 -44 -48
-27 0 -29 2 -23 28 4 15 9 31 11 35 8 13 45 3 56 -15z m-107 -53 c0 -44 -4
-65 -12 -65 -23 0 -33 97 -12 118 21 21 24 14 24 -53z m92 -128 c21 -17 14
-46 -13 -53 -32 -8 -100 17 -100 36 0 17 62 40 85 32 8 -3 21 -9 28 -15z"/>
<path d="M6819 6438 c-1 -18 0 -45 1 -60 1 -22 -4 -27 -30 -33 -17 -4 -44 -18
-60 -32 -27 -23 -30 -30 -30 -88 0 -46 5 -69 19 -86 19 -24 19 -25 0 -48 -28
-34 -26 -129 2 -166 13 -16 18 -30 12 -33 -33 -22 -44 -114 -20 -162 13 -27
68 -50 98 -43 23 6 59 80 59 121 0 39 9 40 44 6 18 -19 26 -37 26 -61 0 -49
24 -37 28 13 3 53 -32 110 -83 138 -22 11 -41 21 -42 21 -1 1 5 20 13 44 8 24
12 52 9 62 -7 20 10 26 31 11 22 -15 44 -58 44 -85 0 -25 2 -28 15 -17 21 17
19 56 -5 104 -18 38 -75 86 -101 86 -7 0 -8 7 -4 18 4 9 10 42 14 72 l6 55 39
-38 c31 -30 37 -42 32 -62 -5 -18 -2 -25 9 -25 21 0 29 45 15 83 -16 38 -68
97 -88 97 -10 0 -13 14 -11 58 3 63 -4 82 -27 82 -9 0 -14 -11 -15 -32z m-5
-164 c23 -9 21 -67 -4 -89 -16 -15 -26 -17 -47 -9 -37 13 -47 47 -22 78 20 26
43 32 73 20z m11 -220 c9 -9 14 -23 11 -31 -3 -8 -6 -18 -6 -23 0 -15 -31 -40
-50 -40 -47 0 -67 67 -28 94 29 20 52 20 73 0z m-3 -205 c16 -9 19 -17 14 -41
-11 -58 -50 -76 -88 -41 -24 22 -23 48 4 73 25 23 40 25 70 9z"/>
</g>
</svg>
